<svg xmlns="http://www.w3.org/2000/svg" viewBox="-663.1 -2599.3 3922.0 3922.0" role="img" aria-labelledby="title desc">
  <title id="title">SK — Social-Avatar</title>
  <desc id="desc">Kompakte, kreisfoermig sichere Avatar-Version des SK-Monogramms fuer Social-Media-Profilbilder.</desc>
  <circle cx="1297.9" cy="-638.3" r="1961.0" fill="#6C473A"/>
  <g fill="#DCDED7">
    <path d="M468 20Q385 20 330 0Q276 -21 244 -47Q212 -73 196 -94Q180 -114 172 -114Q165 -114 146 -97Q126 -80 104 -58Q82 -36 63 -18Q45 -1 40 -1Q36 -1 34 -5Q32 -9 33 -15L111 -421Q113 -428 114 -431Q115 -434 118 -434Q121 -434 123 -432Q124 -429 125 -423L151 -275Q172 -138 245 -71Q319 -4 424 -4Q501 -4 559 -36Q618 -68 655 -123Q691 -178 698 -247Q711 -339 670 -421Q629 -503 513 -592Q375 -698 322 -790Q270 -882 278 -996Q285 -1106 351 -1203Q417 -1300 532 -1361Q647 -1422 800 -1422Q928 -1422 1009 -1380Q1090 -1338 1128 -1271Q1165 -1204 1161 -1127Q1158 -1074 1136 -1045Q1113 -1015 1077 -1015Q1051 -1015 1036 -1035Q1021 -1054 1014 -1096L997 -1191Q975 -1307 922 -1357Q870 -1407 787 -1407Q698 -1407 629 -1366Q561 -1326 520 -1260Q480 -1194 474 -1116Q466 -1014 511 -932Q557 -850 674 -751Q773 -669 825 -599Q878 -528 895 -462Q912 -397 903 -329Q892 -221 830 -142Q769 -64 674 -22Q579 20 468 20Z" />
    <path d="M359 -72Q355 -55 360 -42Q366 -29 384 -26L489 -15Q494 -15 498 -13Q501 -11 501 -7Q501 -4 499 -2Q496 0 491 0H-9Q-14 0 -17 -2Q-20 -4 -20 -6Q-20 -11 -16 -13Q-13 -15 -7 -15L92 -27Q111 -29 121 -41Q131 -53 138 -74Q152 -122 174 -201Q197 -281 225 -382Q253 -483 284 -594Q314 -705 344 -816Q375 -927 402 -1027Q429 -1127 449 -1206Q470 -1285 482 -1331Q486 -1350 479 -1360Q471 -1369 455 -1371L353 -1384Q345 -1386 343 -1388Q340 -1390 340 -1393Q340 -1397 343 -1398Q346 -1400 351 -1400H854Q858 -1400 860 -1398Q862 -1397 862 -1393Q862 -1390 860 -1388Q858 -1386 850 -1384L734 -1363Q720 -1361 711 -1354Q703 -1346 698 -1326Q684 -1280 662 -1201Q640 -1122 613 -1021Q585 -921 555 -809Q525 -698 495 -587Q465 -476 439 -375Q412 -275 391 -196Q371 -117 359 -72ZM677 -739 830 -910 1048 -198Q1071 -126 1095 -97Q1119 -68 1149 -68Q1170 -68 1187 -80Q1203 -92 1220 -120Q1224 -128 1229 -126Q1231 -126 1231 -123Q1231 -120 1229 -115Q1207 -71 1174 -39Q1142 -8 1100 8Q1058 25 1008 25Q948 25 911 -12Q875 -48 848 -141ZM399 -418 387 -432 1147 -1270Q1197 -1325 1242 -1361Q1287 -1396 1330 -1412Q1374 -1429 1421 -1429Q1467 -1429 1490 -1408Q1514 -1387 1513 -1356Q1513 -1320 1485 -1297Q1457 -1274 1403 -1274Q1370 -1274 1347 -1283Q1324 -1292 1296 -1292Q1244 -1292 1200 -1272Q1156 -1253 1099 -1189Z" transform="translate(1050,0)" />
  </g>
  <rect x="-81.1" y="111.7" width="2758.1" height="40.7" fill="#DCDED7"/>
</svg>
